HIERARCHY
ROOT Hips
{
	OFFSET 0.000000 83.214638 0.000000
	CHANNELS 6 Xposition Yposition Zposition Xrotation Yrotation Zrotation
	JOINT Pelvis
	{
		OFFSET 0.000000 0.000000 0.000000
		CHANNELS 3 Xrotation Yrotation Zrotation
		JOINT LeftUpLeg
		{
			OFFSET 8.479700 -4.795502 -0.379100
			CHANNELS 3 Xrotation Yrotation Zrotation
			JOINT LeftLeg
			{
				OFFSET 0.024144 -32.555107 0.112900
				CHANNELS 3 Xrotation Yrotation Zrotation
				JOINT LeftFoot
				{
					OFFSET -0.024144 -32.638630 -3.012600
					CHANNELS 3 Xrotation Yrotation Zrotation
					JOINT LeftToeBase
					{
						OFFSET 0.970200 -13.225400 11.864200
						CHANNELS 3 Xrotation Yrotation Zrotation
						End Site
						{
							OFFSET 0.000000 12.319262 0.000000
						}
					}
					JOINT LFootTongue
					{
						OFFSET 1.142400 -1.059800 6.665200
						CHANNELS 3 Xrotation Yrotation Zrotation
						End Site
						{
							OFFSET 0.000000 12.319262 0.000000
						}
					}
				}
				JOINT LeftPantLeg
				{
					OFFSET 0.918482 -16.533964 -2.284700
					CHANNELS 3 Xrotation Yrotation Zrotation
					End Site
					{
						OFFSET 0.350399 24.744368 0.000000
					}
				}
			}
		}
		JOINT RightUpLeg
		{
			OFFSET -8.479700 -4.795502 -0.379100
			CHANNELS 3 Xrotation Yrotation Zrotation
			JOINT RightLeg
			{
				OFFSET -0.023144 -32.555092 0.112900
				CHANNELS 3 Xrotation Yrotation Zrotation
				JOINT RightFoot
				{
					OFFSET 0.023144 -32.638641 -3.012700
					CHANNELS 3 Xrotation Yrotation Zrotation
					JOINT RightToeBase
					{
						OFFSET -0.970200 -13.225400 11.864200
						CHANNELS 3 Xrotation Yrotation Zrotation
						End Site
						{
							OFFSET 0.000000 12.319244 0.000000
						}
					}
					JOINT RFootTongue
					{
						OFFSET -1.142200 -1.059800 6.665200
						CHANNELS 3 Xrotation Yrotation Zrotation
						End Site
						{
							OFFSET 0.000000 12.319243 0.000000
						}
					}
				}
				JOINT RightPantLeg
				{
					OFFSET -0.919482 -16.533978 -2.284800
					CHANNELS 3 Xrotation Yrotation Zrotation
					End Site
					{
						OFFSET -0.350400 24.744419 0.000000
					}
				}
			}
		}
	}
	JOINT Spine
	{
		OFFSET 0.000000 7.722000 1.166200
		CHANNELS 3 Xrotation Yrotation Zrotation
		JOINT Spine1
		{
			OFFSET 0.000000 12.024101 0.248800
			CHANNELS 3 Xrotation Yrotation Zrotation
			JOINT Spine2
			{
				OFFSET 0.000000 11.502998 -0.491200
				CHANNELS 3 Xrotation Yrotation Zrotation
				JOINT Neck
				{
					OFFSET 0.000000 18.430702 -3.123100
					CHANNELS 3 Xrotation Yrotation Zrotation
					JOINT Head
					{
						OFFSET 0.000000 9.051102 1.034000
						CHANNELS 3 Xrotation Yrotation Zrotation
						JOINT HairB
						{
							OFFSET 0.208400 24.786102 24.822300
							CHANNELS 3 Xrotation Yrotation Zrotation
							End Site
							{
								OFFSET 0.000000 32.263779 0.000000
							}
						}
						JOINT HairA
						{
							OFFSET -7.081100 24.428299 23.196600
							CHANNELS 3 Xrotation Yrotation Zrotation
							End Site
							{
								OFFSET 0.000000 32.263779 0.000000
							}
						}
						JOINT Hat
						{
							OFFSET 16.728800 15.048294 -15.439601
							CHANNELS 3 Xrotation Yrotation Zrotation
							End Site
							{
								OFFSET 0.000000 32.263779 0.000000
							}
						}
					}
				}
				JOINT LeftShoulder
				{
					OFFSET 6.197800 13.665199 -4.064700
					CHANNELS 3 Xrotation Yrotation Zrotation
					JOINT LeftArm
					{
						OFFSET 7.778100 -0.187103 -1.709300
						CHANNELS 3 Xrotation Yrotation Zrotation
						JOINT LeftForeArm
						{
							OFFSET 22.049376 0.000000 0.000000
							CHANNELS 3 Xrotation Yrotation Zrotation
							JOINT LeftHand
							{
								OFFSET 23.009392 0.000000 0.000000
								CHANNELS 3 Xrotation Yrotation Zrotation
								JOINT LeftHandThumb1
								{
									OFFSET 3.507191 -2.063065 3.133727
									CHANNELS 3 Xrotation Yrotation Zrotation
									JOINT LeftHandThumb2
									{
										OFFSET 3.101337 -1.790558 1.790558
										CHANNELS 3 Xrotation Yrotation Zrotation
										JOINT LeftHandThumb3
										{
											OFFSET 3.058640 -1.765907 1.765906
											CHANNELS 3 Xrotation Yrotation Zrotation
											End Site
											{
												OFFSET -0.415260 3.926476 -0.049563
											}
										}
									}
								}
								JOINT LeftHandIndex1
								{
									OFFSET 11.334419 -0.901459 3.706815
									CHANNELS 3 Xrotation Yrotation Zrotation
									JOINT LeftHandIndex2
									{
										OFFSET 3.283112 0.000000 0.000000
										CHANNELS 3 Xrotation Yrotation Zrotation
										JOINT LeftHandIndex3
										{
											OFFSET 3.323853 0.000000 0.000000
											CHANNELS 3 Xrotation Yrotation Zrotation
											End Site
											{
												OFFSET -1.135597 3.097809 0.402452
											}
										}
									}
								}
								JOINT LeftHandMiddle1
								{
									OFFSET 11.335861 0.000000 0.000000
									CHANNELS 3 Xrotation Yrotation Zrotation
									JOINT LeftHandMiddle2
									{
										OFFSET 3.410492 0.000000 0.000000
										CHANNELS 3 Xrotation Yrotation Zrotation
										JOINT LeftHandMiddle3
										{
											OFFSET 3.312172 0.000000 0.000000
											CHANNELS 3 Xrotation Yrotation Zrotation
											End Site
											{
												OFFSET -1.150200 3.080154 0.400270
											}
										}
									}
								}
								JOINT LeftHandRing1
								{
									OFFSET 11.514786 -0.013176 -3.003090
									CHANNELS 3 Xrotation Yrotation Zrotation
									JOINT LeftHandRing2
									{
										OFFSET 3.053307 0.000000 0.000000
										CHANNELS 3 Xrotation Yrotation Zrotation
										JOINT LeftHandRing3
										{
											OFFSET 3.295807 0.000000 0.000000
											CHANNELS 3 Xrotation Yrotation Zrotation
											End Site
											{
												OFFSET -1.281006 3.013344 0.375733
											}
										}
									}
								}
								JOINT LeftHandPinky1
								{
									OFFSET 10.518692 -0.960396 -5.730441
									CHANNELS 3 Xrotation Yrotation Zrotation
									JOINT LeftHandPinky2
									{
										OFFSET 2.861649 0.000000 0.000000
										CHANNELS 3 Xrotation Yrotation Zrotation
										JOINT LeftHandPinky3
										{
											OFFSET 2.863380 0.000000 0.000000
											CHANNELS 3 Xrotation Yrotation Zrotation
											End Site
											{
												OFFSET -0.843597 2.711159 0.369971
											}
										}
									}
								}
							}
							JOINT LSleeve
							{
								OFFSET 6.676277 -0.344902 -1.011730
								CHANNELS 3 Xrotation Yrotation Zrotation
								End Site
								{
									OFFSET 0.000000 14.885353 0.000000
								}
							}
						}
					}
				}
				JOINT RightShoulder
				{
					OFFSET -6.197800 13.665199 -4.064700
					CHANNELS 3 Xrotation Yrotation Zrotation
					JOINT RightArm
					{
						OFFSET -7.778100 -0.187103 -1.709300
						CHANNELS 3 Xrotation Yrotation Zrotation
						JOINT RightForeArm
						{
							OFFSET -22.049376 0.000000 0.000000
							CHANNELS 3 Xrotation Yrotation Zrotation
							JOINT RightHand
							{
								OFFSET -23.009392 0.000000 0.000000
								CHANNELS 3 Xrotation Yrotation Zrotation
								JOINT RightHandThumb1
								{
									OFFSET -3.507191 -2.063065 3.133727
									CHANNELS 3 Xrotation Yrotation Zrotation
									JOINT RightHandThumb2
									{
										OFFSET -3.101337 -1.790558 1.790558
										CHANNELS 3 Xrotation Yrotation Zrotation
										JOINT RightHandThumb3
										{
											OFFSET -3.058640 -1.765907 1.765906
											CHANNELS 3 Xrotation Yrotation Zrotation
											End Site
											{
												OFFSET 0.415260 3.926476 -0.049563
											}
										}
									}
								}
								JOINT RightHandIndex1
								{
									OFFSET -11.334419 -0.901459 3.706815
									CHANNELS 3 Xrotation Yrotation Zrotation
									JOINT RightHandIndex2
									{
										OFFSET -3.283112 0.000000 0.000000
										CHANNELS 3 Xrotation Yrotation Zrotation
										JOINT RightHandIndex3
										{
											OFFSET -3.323853 0.000000 0.000000
											CHANNELS 3 Xrotation Yrotation Zrotation
											End Site
											{
												OFFSET 1.135597 3.097809 0.402452
											}
										}
									}
								}
								JOINT RightHandMiddle1
								{
									OFFSET -11.335861 0.000000 0.000000
									CHANNELS 3 Xrotation Yrotation Zrotation
									JOINT RightHandMiddle2
									{
										OFFSET -3.410492 0.000000 0.000000
										CHANNELS 3 Xrotation Yrotation Zrotation
										JOINT RightHandMiddle3
										{
											OFFSET -3.312172 0.000000 0.000000
											CHANNELS 3 Xrotation Yrotation Zrotation
											End Site
											{
												OFFSET 1.150200 3.080154 0.400270
											}
										}
									}
								}
								JOINT RightHandRing1
								{
									OFFSET -11.514786 -0.013176 -3.003090
									CHANNELS 3 Xrotation Yrotation Zrotation
									JOINT RightHandRing2
									{
										OFFSET -3.053307 0.000000 0.000000
										CHANNELS 3 Xrotation Yrotation Zrotation
										JOINT RightHandRing3
										{
											OFFSET -3.295807 0.000000 0.000000
											CHANNELS 3 Xrotation Yrotation Zrotation
											End Site
											{
												OFFSET 1.281006 3.013344 0.375733
											}
										}
									}
								}
								JOINT RightHandPinky1
								{
									OFFSET -10.518692 -0.960396 -5.730441
									CHANNELS 3 Xrotation Yrotation Zrotation
									JOINT RightHandPinky2
									{
										OFFSET -2.861649 0.000000 0.000000
										CHANNELS 3 Xrotation Yrotation Zrotation
										JOINT RightHandPinky3
										{
											OFFSET -2.863380 0.000000 0.000000
											CHANNELS 3 Xrotation Yrotation Zrotation
											End Site
											{
												OFFSET 0.843597 2.711159 0.369971
											}
										}
									}
								}
							}
							JOINT RSleeve
							{
								OFFSET -6.676277 -0.344902 -1.011730
								CHANNELS 3 Xrotation Yrotation Zrotation
								End Site
								{
									OFFSET 0.000000 14.885353 0.000000
								}
							}
						}
					}
				}
				JOINT Backpack
				{
					OFFSET 0.000000 -2.471497 36.677502
					CHANNELS 3 Xrotation Yrotation Zrotation
					End Site
					{
						OFFSET 0.000000 20.427315 0.000000
					}
				}
				JOINT Hood
				{
					OFFSET 0.000000 18.754097 -10.431000
					CHANNELS 3 Xrotation Yrotation Zrotation
					JOINT Hood1
					{
						OFFSET 0.000000 -5.011002 -7.685901
						CHANNELS 3 Xrotation Yrotation Zrotation
						End Site
						{
							OFFSET 0.000000 9.175140 0.000000
						}
					}
				}
				JOINT LHoodieString
				{
					OFFSET 5.250500 16.397697 3.089900
					CHANNELS 3 Xrotation Yrotation Zrotation
					JOINT LHoodieString1
					{
						OFFSET 0.257700 -6.364304 3.694600
						CHANNELS 3 Xrotation Yrotation Zrotation
						JOINT LHoodieString2
						{
							OFFSET 0.000000 -9.643799 2.679100
							CHANNELS 3 Xrotation Yrotation Zrotation
							End Site
							{
								OFFSET 0.000000 10.009018 0.000000
							}
						}
					}
				}
				JOINT RHoodieString
				{
					OFFSET -5.250500 16.397697 3.089900
					CHANNELS 3 Xrotation Yrotation Zrotation
					JOINT RHoodieString1
					{
						OFFSET -0.257700 -6.364304 3.694600
						CHANNELS 3 Xrotation Yrotation Zrotation
						JOINT RHoodieString2
						{
							OFFSET 0.000000 -9.643799 2.679100
							CHANNELS 3 Xrotation Yrotation Zrotation
							End Site
							{
								OFFSET 0.000000 10.009018 0.000000
							}
						}
					}
				}
			}
			JOINT LBackpack_Strap
			{
				OFFSET 15.223200 -7.719803 -6.610900
				CHANNELS 3 Xrotation Yrotation Zrotation
				End Site
				{
					OFFSET 0.000000 16.040596 0.000000
				}
			}
			JOINT RBackpack_Strap
			{
				OFFSET -15.223000 -7.719803 -6.610900
				CHANNELS 3 Xrotation Yrotation Zrotation
				End Site
				{
					OFFSET 0.000000 16.040596 0.000000
				}
			}
		}
	}
	JOINT BoyFacialAnim_Joint
	{
		OFFSET 1.000000 -82.208099 -1.550900
		CHANNELS 3 Xrotation Yrotation Zrotation
		End Site
		{
			OFFSET 0.000000 30.012791 0.000000
		}
	}
}
MOTION
Frames: 5
Frame Time: 0.033333
-0.322590 78.029587 -0.063166 -1.496010 6.168260 3.027872 -0.000000 -0.000000 0.000000 -22.637214 -6.363554 9.919088 26.183085 -0.192912 -0.974561 -2.509615 -2.909936 -13.546957 -0.000000 -0.000000 -0.000000 -0.000000 -0.000000 0.000000 -0.000000 -0.000001 -0.000001 -20.543850 -12.541519 -19.504208 39.525400 0.301055 1.446327 -16.978252 -8.188604 9.371983 -0.000000 -0.000000 -0.000000 -0.000000 -0.000000 -0.000000 -0.000001 0.000001 0.000000 5.550227 0.033799 -0.529866 11.100324 0.009741 -0.734989 11.100321 0.009740 -0.734989 -10.509795 -1.525006 -3.378779 -17.396610 -3.946746 2.467865 0.000000 -0.000000 -0.000000 0.000000 -0.000000 -0.000000 0.000000 -0.000000 -0.000000 9.458447 -6.444343 -14.996462 -9.688694 10.601556 -35.774502 0.001820 -55.255926 0.168443 23.869185 -12.509982 16.445982 7.350849 -14.484226 -10.934846 -1.067054 0.182858 1.946106 -0.000000 -0.000001 -0.000001 5.776113 -9.584518 -10.641311 0.033773 0.666519 -10.636473 0.000002 -0.000000 -0.000004 1.641857 7.127213 -4.239650 -0.187949 -0.789346 -15.969032 -0.000000 -0.000002 -0.000004 1.677314 11.039955 -8.046058 -0.183065 -2.876882 -23.912146 -0.000000 0.000000 0.000001 0.734626 28.047537 -16.218786 -0.849532 -6.142168 -29.148256 0.000001 -0.000000 0.000001 -0.000001 0.000001 0.000006 -3.413132 0.044909 -0.357068 -8.521084 -11.378036 60.672625 -0.093801 56.128879 -0.117887 33.242295 -12.830435 -17.731917 -4.978391 12.391686 9.407277 -1.210148 -0.220454 -2.121003 -0.000001 0.000000 -0.000002 10.258603 13.576580 6.067473 0.012529 -0.647887 4.076583 -0.000001 -0.000001 0.000002 -1.738474 -1.670970 3.393799 -0.252709 0.798092 21.448262 0.000002 0.000003 -0.000002 -0.824245 -13.700956 18.348844 -0.242213 2.213612 16.221194 0.000002 -0.000001 0.000004 -4.380723 -23.900577 30.060318 -0.233911 5.125291 12.870313 -0.000002 -0.000001 0.000005 -0.000002 -0.000002 0.000001 0.000002 -0.000000 -0.000000 0.000002 -0.000000 -0.000000 0.000002 -0.000000 -0.000000 0.000002 -0.000000 -0.000000 0.000002 -0.000000 -0.000000 0.000002 0.000000 -0.000000 0.000002 -0.000000 -0.000000 0.000002 -0.000000 -0.000000 0.000002 0.000000 -0.000000 -0.000002 0.000000 -0.000000 -0.000002 0.000000 -0.000000 -0.000000 -0.000000 0.000000 
-0.329489 78.071510 -0.191806 -1.439280 6.071297 3.119450 -0.000000 0.000000 -0.000000 -22.992037 -5.595797 9.997167 26.131416 -0.194592 -0.972599 -1.826571 -3.568287 -13.067322 0.000000 -0.000000 0.000000 0.000000 -0.000000 0.000000 -0.000000 -0.000000 0.000000 -20.734702 -12.724546 -19.583209 39.150788 0.259482 1.435969 -16.267926 -7.815126 9.290033 0.000000 0.000001 -0.000000 0.000000 0.000001 -0.000000 0.000001 -0.000000 0.000000 5.686046 -0.009907 -0.580578 11.371867 -0.080920 -0.834526 11.371867 -0.080922 -0.834526 -10.561658 -1.453972 -3.387039 -17.441023 -3.879728 2.469160 -0.000000 0.000000 -0.000000 -0.000000 0.000000 -0.000000 -0.000000 0.000000 -0.000000 9.471668 -6.393410 -14.959364 -9.572007 10.496035 -35.904453 0.001974 -55.243991 0.169810 24.009751 -12.443707 16.580107 6.996730 -14.495763 -10.863545 -0.258105 -0.229628 2.075552 0.000001 -0.000000 -0.000001 5.738996 -9.637806 -10.811461 0.034169 0.667139 -10.670246 -0.000003 -0.000001 -0.000004 1.670397 7.169808 -4.722689 -0.189241 -0.796378 -16.060748 0.000004 0.000000 -0.000001 1.775981 11.052129 -8.689559 -0.187634 -2.884288 -24.002927 -0.000004 0.000001 -0.000005 1.383950 28.662807 -17.503121 -0.845184 -6.138690 -29.106578 -0.000004 -0.000000 -0.000000 0.000002 -0.000001 0.000002 -3.430494 0.148851 -0.303163 -8.372203 -11.534218 60.632204 -0.093345 56.214151 -0.121095 33.152635 -12.598339 -17.885127 -4.990164 12.478097 9.434857 -1.047155 -0.147286 -2.088143 0.000002 -0.000001 -0.000000 10.169080 13.674522 6.343421 0.012842 -0.648945 4.103311 -0.000001 -0.000001 0.000002 -1.791851 -1.617464 3.478245 -0.252292 0.796332 21.417672 0.000004 0.000003 -0.000001 -0.739648 -13.882313 18.485386 -0.237649 2.200799 16.101732 -0.000002 0.000000 -0.000003 -4.156809 -23.908985 30.562156 -0.227978 5.113719 12.803777 0.000001 0.000002 0.000004 0.000001 -0.000000 -0.000001 0.000001 -0.000000 0.000000 0.000001 -0.000000 0.000000 0.000001 -0.000000 0.000000 0.000001 -0.000000 0.000000 0.000001 -0.000000 0.000000 0.000001 -0.000000 0.000001 0.000001 -0.000000 0.000000 0.000001 -0.000000 0.000000 0.000001 -0.000000 0.000001 0.000001 -0.000000 0.000000 0.000001 -0.000000 0.000000 -0.000000 0.000000 -0.000000 
-0.321267 78.103012 -0.389772 -1.361157 5.896139 3.196240 -0.000000 -0.000000 0.000000 -23.554572 -4.413322 10.131871 26.203896 -0.198528 -0.975204 -1.000631 -4.638343 -12.397448 -0.000000 -0.000000 0.000000 -0.000000 -0.000000 0.000000 -0.000000 -0.000001 -0.000001 -21.110040 -12.624508 -19.686997 39.163991 0.196640 1.436846 -15.997299 -7.505416 9.222375 0.000000 -0.000001 0.000000 0.000000 -0.000001 0.000000 0.000001 -0.000001 -0.000001 5.751530 -0.008730 -0.628078 11.502797 -0.080914 -0.927258 11.502802 -0.080915 -0.927260 -10.667463 -1.394240 -3.398210 -17.509260 -3.828787 2.490462 -0.000000 -0.000000 0.000000 -0.000000 -0.000000 0.000000 -0.000000 -0.000000 0.000000 9.483937 -6.330181 -14.919244 -9.656807 10.357895 -35.986088 0.002235 -55.214737 0.170406 24.233086 -12.449248 16.642405 6.475164 -14.454169 -10.734652 0.913561 -0.815945 2.283598 -0.000001 -0.000001 0.000004 5.684449 -9.669909 -11.130738 0.034518 0.667641 -10.699171 -0.000001 0.000001 -0.000003 1.703989 7.181777 -5.419924 -0.190996 -0.805937 -16.185189 0.000005 -0.000003 0.000003 1.873522 11.025355 -9.536466 -0.193551 -2.893852 -24.119867 0.000004 0.000000 -0.000000 2.044210 29.121311 -18.890152 -0.844361 -6.138006 -29.098515 -0.000000 -0.000000 -0.000000 -0.000002 0.000000 0.000001 -3.451896 0.298383 -0.231931 -8.343432 -11.694760 60.523030 -0.090854 56.451930 -0.123691 33.076315 -12.498546 -17.829053 -4.969484 12.584813 9.479246 -0.816490 -0.043965 -2.042742 0.000001 -0.000001 -0.000001 10.281561 13.707797 5.906698 0.012477 -0.647780 4.073252 -0.000001 -0.000001 0.000003 -1.812925 -1.675572 3.619077 -0.252391 0.796706 21.423732 0.000003 0.000001 -0.000000 -0.632065 -14.110270 18.750136 -0.232589 2.186568 15.969040 0.000001 0.000000 0.000000 -3.822896 -23.764888 31.731529 -0.249149 5.155034 13.041604 0.000001 0.000000 -0.000001 0.000001 -0.000002 0.000001 -0.000001 -0.000000 -0.000000 -0.000001 -0.000000 -0.000000 -0.000001 -0.000000 -0.000000 -0.000001 -0.000000 -0.000000 -0.000001 -0.000000 0.000000 -0.000001 -0.000000 -0.000000 -0.000001 -0.000000 -0.000000 -0.000001 -0.000000 0.000000 -0.000001 -0.000000 -0.000000 0.000002 -0.000000 0.000000 0.000002 -0.000000 0.000000 -0.000000 -0.000000 0.000000 
-0.307129 78.109772 -0.695263 -1.233600 5.662962 3.262135 0.000000 0.000000 -0.000000 -24.622545 -2.644892 10.428845 26.707302 -0.204383 -0.992789 -0.022361 -6.340621 -11.543457 -0.000000 -0.000000 0.000000 -0.000000 -0.000000 -0.000000 -0.000000 -0.000000 -0.000000 -21.731312 -12.102987 -19.748095 39.460209 0.130273 1.447431 -15.527066 -7.339777 9.202945 0.000000 -0.000000 -0.000000 0.000000 -0.000000 -0.000000 -0.000000 -0.000001 -0.000001 5.776245 0.018167 -0.668911 11.552263 -0.029643 -1.016212 11.552264 -0.029642 -1.016212 -10.920177 -1.334096 -3.399228 -17.571485 -3.770953 2.500731 0.000000 0.000000 -0.000000 0.000000 0.000000 -0.000000 0.000000 0.000000 -0.000000 9.495250 -6.261309 -14.879784 -9.942831 10.250696 -36.021444 0.003827 -55.325089 0.171344 24.400637 -12.454958 16.608916 5.850521 -14.378805 -10.568419 1.619677 -1.162285 2.417194 0.000001 0.000002 -0.000003 5.617462 -9.679782 -11.566103 0.034814 0.668071 -10.723834 -0.000000 0.000001 -0.000002 1.745101 7.172393 -6.283184 -0.193126 -0.817336 -16.333274 0.000004 -0.000004 0.000005 1.973655 10.972032 -10.550008 -0.200045 -2.904285 -24.247575 -0.000001 0.000001 -0.000004 2.417440 29.287902 -19.765893 -0.846055 -6.139382 -29.114860 -0.000004 -0.000001 -0.000000 -0.000001 -0.000000 -0.000000 -3.467633 0.424189 -0.172074 -8.365051 -11.698615 60.439996 -0.087691 56.786937 -0.125478 32.877201 -12.526342 -17.745649 -4.941031 12.700972 9.527162 -0.527389 0.085506 -1.989491 -0.000000 0.000001 -0.000002 10.655877 13.673670 4.537661 0.011605 -0.644881 3.998858 -0.000001 0.000001 0.000002 -1.808959 -1.819706 3.802190 -0.252911 0.798712 21.458583 0.000001 0.000002 0.000004 -0.384317 -14.647803 19.215470 -0.233128 2.188178 15.983968 0.000002 -0.000001 0.000005 -3.333664 -23.412500 33.568198 -0.289185 5.232003 13.485922 0.000001 -0.000001 -0.000002 0.000000 -0.000001 -0.000002 0.000000 -0.000000 0.000000 0.000000 -0.000000 0.000000 0.000000 -0.000000 0.000000 0.000000 -0.000000 0.000000 0.000000 -0.000000 0.000000 0.000000 -0.000000 0.000000 0.000000 -0.000000 0.000000 0.000000 -0.000000 0.000000 0.000000 -0.000000 0.000000 -0.000001 0.000000 -0.000000 -0.000001 0.000000 -0.000000 0.000000 0.000000 -0.000000 
-0.296759 78.075592 -1.144486 -1.028517 5.391690 3.321722 -0.000000 0.000000 0.000000 -26.454767 -0.201262 10.999608 27.823044 -0.217530 -1.032552 1.368533 -8.823470 -10.447811 0.000000 -0.000000 -0.000000 0.000000 -0.000000 -0.000000 0.000000 0.000000 0.000001 -22.658207 -11.041335 -19.699845 40.114449 0.057497 1.469620 -14.837503 -7.425229 9.231153 0.000000 0.000001 0.000000 0.000000 0.000001 0.000000 0.000002 -0.000001 -0.000000 5.789851 0.052003 -0.699580 11.579606 0.033163 -1.103857 11.579599 0.033162 -1.103859 -11.413763 -1.261904 -3.376290 -17.597707 -3.683104 2.468896 0.000000 0.000000 -0.000000 0.000000 0.000000 -0.000000 0.000000 0.000000 -0.000000 9.504628 -6.193494 -14.844673 -10.431161 10.233088 -36.012056 0.007964 -55.724447 0.173719 24.371952 -12.391190 16.457368 5.186815 -14.289565 -10.385311 2.411012 -1.543929 2.573327 0.000001 0.000000 -0.000001 5.543263 -9.666505 -12.084462 0.035061 0.668448 -10.744923 -0.000001 -0.000003 0.000001 1.796334 7.151214 -7.264331 -0.195483 -0.829821 -16.495824 0.000001 0.000000 0.000000 2.080160 10.904742 -11.693490 -0.206347 -2.914285 -24.370677 -0.000002 0.000003 -0.000003 2.823404 29.482443 -20.714243 -0.849321 -6.142007 -29.146251 -0.000003 -0.000001 0.000001 0.000001 -0.000001 -0.000001 -3.469039 0.456958 -0.152199 -8.371708 -11.387573 60.480895 -0.085266 57.158213 -0.125938 32.426610 -12.674200 -17.818521 -4.929515 12.815751 9.565453 -0.189095 0.237128 -1.933167 0.000001 0.000002 -0.000002 11.058717 13.452158 3.149352 0.010370 -0.640729 3.892608 -0.000001 0.000000 0.000004 -1.787199 -2.024266 4.013553 -0.253746 0.801936 21.514249 0.000004 -0.000000 0.000001 0.090844 -15.122908 20.721035 -0.260643 2.264692 16.699041 -0.000001 0.000001 0.000002 -2.916315 -22.710796 35.769690 -0.339839 5.327339 14.038942 -0.000001 0.000000 0.000002 0.000001 -0.000000 -0.000004 0.000002 0.000000 0.000000 0.000002 0.000000 0.000000 0.000002 0.000000 0.000000 0.000002 0.000000 0.000000 0.000002 0.000000 0.000000 0.000002 0.000000 0.000000 0.000002 0.000000 0.000000 0.000002 0.000000 0.000000 0.000002 0.000000 0.000000 -0.000002 0.000000 -0.000000 -0.000002 0.000000 -0.000000 -0.000000 0.000000 0.000000 
